<svg xmlns="http://www.w3.org/2000/svg" xmlns:xlink="http://www.w3.org/1999/xlink" version="1.1" x="0px" y="0px" viewBox="0 0 100 125" enable-background="new 0 0 100 100" xml:space="preserve"><g><path d="M49,57.2c-1.1,0-2-0.9-2-2v-2.9c0-1.1,0.9-2,2-2c2.2,0,3.9-1.8,3.9-3.9c0-2.2-1.8-3.9-3.9-3.9c-2.2,0-3.9,1.8-3.9,3.9   c0,1.1-0.9,2-2,2s-2-0.9-2-2c0-4.4,3.6-7.9,7.9-7.9c4.4,0,7.9,3.6,7.9,7.9c0,3.7-2.5,6.8-5.9,7.7v1.1C51,56.3,50.1,57.2,49,57.2z"/><path d="M49,62.7c-0.5,0-1-0.2-1.4-0.6c-0.4-0.4-0.6-0.9-0.6-1.4c0-0.5,0.2-1,0.6-1.4c0.7-0.7,2.1-0.7,2.8,0   c0.4,0.4,0.6,0.9,0.6,1.4c0,0.5-0.2,1-0.6,1.4C50,62.5,49.5,62.7,49,62.7z"/><path d="M49,75.7c-14.2,0-25.7-11.5-25.7-25.7S34.8,24.3,49,24.3S74.7,35.8,74.7,50S63.2,75.7,49,75.7z M49,28.3   C37,28.3,27.3,38,27.3,50c0,12,9.8,21.7,21.7,21.7c12,0,21.7-9.8,21.7-21.7C70.7,38,61,28.3,49,28.3z"/></g><</svg>